<svg id="visual" viewBox="0 0 900 600" width="900" height="600" xmlns="http://www.w3.org/2000/svg" xmlns:xlink="http://www.w3.org/1999/xlink" version="1.1"><rect x="0" y="0" width="900" height="600" fill="#080808"></rect><path d="M0 205L16.7 199.5C33.3 194 66.7 183 100 165.2C133.3 147.3 166.7 122.7 200 128.3C233.3 134 266.7 170 300 193.2C333.3 216.3 366.7 226.7 400 237.7C433.3 248.7 466.7 260.3 500 238.3C533.3 216.3 566.7 160.7 600 140.5C633.3 120.3 666.7 135.7 700 159.5C733.3 183.3 766.7 215.7 800 207C833.3 198.3 866.7 148.7 883.3 123.8L900 99L900 601L883.3 601C866.7 601 833.3 601 800 601C766.7 601 733.3 601 700 601C666.7 601 633.3 601 600 601C566.7 601 533.3 601 500 601C466.7 601 433.3 601 400 601C366.7 601 333.3 601 300 601C266.7 601 233.3 601 200 601C166.7 601 133.3 601 100 601C66.7 601 33.3 601 16.7 601L0 601Z" fill="#300806"></path><path d="M0 321L16.7 301.2C33.3 281.3 66.7 241.7 100 217.2C133.3 192.7 166.7 183.3 200 195.7C233.3 208 266.7 242 300 256.2C333.3 270.3 366.7 264.7 400 254.8C433.3 245 466.7 231 500 227C533.3 223 566.7 229 600 235.7C633.3 242.3 666.7 249.7 700 266.3C733.3 283 766.7 309 800 312.2C833.3 315.3 866.7 295.7 883.3 285.8L900 276L900 601L883.3 601C866.7 601 833.3 601 800 601C766.7 601 733.3 601 700 601C666.7 601 633.3 601 600 601C566.7 601 533.3 601 500 601C466.7 601 433.3 601 400 601C366.7 601 333.3 601 300 601C266.7 601 233.3 601 200 601C166.7 601 133.3 601 100 601C66.7 601 33.3 601 16.7 601L0 601Z" fill="#540d17"></path><path d="M0 340L16.7 348.5C33.3 357 66.7 374 100 374.3C133.3 374.7 166.7 358.3 200 348.2C233.3 338 266.7 334 300 330.8C333.3 327.7 366.7 325.3 400 321.8C433.3 318.3 466.7 313.7 500 316.7C533.3 319.7 566.7 330.3 600 338.7C633.3 347 666.7 353 700 357.5C733.3 362 766.7 365 800 347.5C833.3 330 866.7 292 883.3 273L900 254L900 601L883.3 601C866.7 601 833.3 601 800 601C766.7 601 733.3 601 700 601C666.7 601 633.3 601 600 601C566.7 601 533.3 601 500 601C466.7 601 433.3 601 400 601C366.7 601 333.3 601 300 601C266.7 601 233.3 601 200 601C166.7 601 133.3 601 100 601C66.7 601 33.3 601 16.7 601L0 601Z" fill="#7b1023"></path><path d="M0 323L16.7 323.7C33.3 324.3 66.7 325.7 100 334.2C133.3 342.7 166.7 358.3 200 367.3C233.3 376.3 266.7 378.7 300 378C333.3 377.3 366.7 373.7 400 376.8C433.3 380 466.7 390 500 384.5C533.3 379 566.7 358 600 362.5C633.3 367 666.7 397 700 404.2C733.3 411.3 766.7 395.7 800 398.8C833.3 402 866.7 424 883.3 435L900 446L900 601L883.3 601C866.7 601 833.3 601 800 601C766.7 601 733.3 601 700 601C666.7 601 633.3 601 600 601C566.7 601 533.3 601 500 601C466.7 601 433.3 601 400 601C366.7 601 333.3 601 300 601C266.7 601 233.3 601 200 601C166.7 601 133.3 601 100 601C66.7 601 33.3 601 16.7 601L0 601Z" fill="#a51131"></path><path d="M0 400L16.7 413.7C33.3 427.3 66.7 454.7 100 458.2C133.3 461.7 166.7 441.3 200 436.5C233.3 431.7 266.7 442.3 300 442C333.3 441.7 366.7 430.3 400 435.5C433.3 440.7 466.7 462.3 500 469.5C533.3 476.7 566.7 469.3 600 461.3C633.3 453.3 666.7 444.7 700 449.7C733.3 454.7 766.7 473.3 800 479.3C833.3 485.3 866.7 478.7 883.3 475.3L900 472L900 601L883.3 601C866.7 601 833.3 601 800 601C766.7 601 733.3 601 700 601C666.7 601 633.3 601 600 601C566.7 601 533.3 601 500 601C466.7 601 433.3 601 400 601C366.7 601 333.3 601 300 601C266.7 601 233.3 601 200 601C166.7 601 133.3 601 100 601C66.7 601 33.3 601 16.7 601L0 601Z" fill="#d10d3f"></path><path d="M0 487L16.7 487.3C33.3 487.7 66.7 488.3 100 493.3C133.3 498.3 166.7 507.7 200 509C233.3 510.3 266.7 503.7 300 507.7C333.3 511.7 366.7 526.3 400 532.2C433.3 538 466.7 535 500 524.8C533.3 514.7 566.7 497.3 600 497.5C633.3 497.7 666.7 515.3 700 520.3C733.3 525.3 766.7 517.7 800 510.2C833.3 502.7 866.7 495.3 883.3 491.7L900 488L900 601L883.3 601C866.7 601 833.3 601 800 601C766.7 601 733.3 601 700 601C666.7 601 633.3 601 600 601C566.7 601 533.3 601 500 601C466.7 601 433.3 601 400 601C366.7 601 333.3 601 300 601C266.7 601 233.3 601 200 601C166.7 601 133.3 601 100 601C66.7 601 33.3 601 16.7 601L0 601Z" fill="#ff004f"></path></svg>