<svg id="visual" viewBox="0 0 900 600" width="900" height="600" xmlns="http://www.w3.org/2000/svg" xmlns:xlink="http://www.w3.org/1999/xlink" version="1.1"><path d="M0 399L11.5 390.3C23 381.7 46 364.3 69 350.8C92 337.3 115 327.7 138.2 330.8C161.3 334 184.7 350 207.8 369.2C231 388.3 254 410.7 277 427.3C300 444 323 455 346 460.7C369 466.3 392 466.7 415.2 464.2C438.3 461.7 461.7 456.3 484.8 439.2C508 422 531 393 554 382.8C577 372.7 600 381.3 623 381.2C646 381 669 372 692.2 370.3C715.3 368.7 738.7 374.3 761.8 390.2C785 406 808 432 831 448.7C854 465.3 877 472.7 888.5 476.3L900 480L900 0L888.5 0C877 0 854 0 831 0C808 0 785 0 761.8 0C738.7 0 715.3 0 692.2 0C669 0 646 0 623 0C600 0 577 0 554 0C531 0 508 0 484.8 0C461.7 0 438.3 0 415.2 0C392 0 369 0 346 0C323 0 300 0 277 0C254 0 231 0 207.8 0C184.7 0 161.3 0 138.2 0C115 0 92 0 69 0C46 0 23 0 11.5 0L0 0Z" fill="#300806"></path><path d="M0 385L11.5 380.8C23 376.7 46 368.3 69 357.2C92 346 115 332 138.2 319.8C161.3 307.7 184.7 297.3 207.8 293.5C231 289.7 254 292.3 277 305.8C300 319.3 323 343.7 346 337.7C369 331.7 392 295.3 415.2 305.2C438.3 315 461.7 371 484.8 392.2C508 413.3 531 399.7 554 397.8C577 396 600 406 623 387.7C646 369.3 669 322.7 692.2 321.3C715.3 320 738.7 364 761.8 388.5C785 413 808 418 831 408.2C854 398.3 877 373.7 888.5 361.3L900 349L900 0L888.5 0C877 0 854 0 831 0C808 0 785 0 761.8 0C738.7 0 715.3 0 692.2 0C669 0 646 0 623 0C600 0 577 0 554 0C531 0 508 0 484.8 0C461.7 0 438.3 0 415.2 0C392 0 369 0 346 0C323 0 300 0 277 0C254 0 231 0 207.8 0C184.7 0 161.3 0 138.2 0C115 0 92 0 69 0C46 0 23 0 11.5 0L0 0Z" fill="#540d17"></path><path d="M0 310L11.5 306.2C23 302.3 46 294.7 69 287C92 279.3 115 271.7 138.2 263.7C161.3 255.7 184.7 247.3 207.8 251C231 254.7 254 270.3 277 268.5C300 266.7 323 247.3 346 233.8C369 220.3 392 212.7 415.2 218.5C438.3 224.3 461.7 243.7 484.8 246.8C508 250 531 237 554 245.2C577 253.3 600 282.7 623 284.5C646 286.3 669 260.7 692.2 256.3C715.3 252 738.7 269 761.8 286C785 303 808 320 831 312.3C854 304.7 877 272.3 888.5 256.2L900 240L900 0L888.5 0C877 0 854 0 831 0C808 0 785 0 761.8 0C738.7 0 715.3 0 692.2 0C669 0 646 0 623 0C600 0 577 0 554 0C531 0 508 0 484.8 0C461.7 0 438.3 0 415.2 0C392 0 369 0 346 0C323 0 300 0 277 0C254 0 231 0 207.8 0C184.7 0 161.3 0 138.2 0C115 0 92 0 69 0C46 0 23 0 11.5 0L0 0Z" fill="#7b1023"></path><path d="M0 169L11.5 177.5C23 186 46 203 69 212.3C92 221.7 115 223.3 138.2 232.5C161.3 241.7 184.7 258.3 207.8 252.2C231 246 254 217 277 197.8C300 178.7 323 169.3 346 164.8C369 160.3 392 160.7 415.2 174.3C438.3 188 461.7 215 484.8 232.2C508 249.3 531 256.7 554 245.5C577 234.3 600 204.7 623 199.8C646 195 669 215 692.2 229.7C715.3 244.3 738.7 253.7 761.8 249.3C785 245 808 227 831 214.2C854 201.3 877 193.7 888.5 189.8L900 186L900 0L888.5 0C877 0 854 0 831 0C808 0 785 0 761.8 0C738.7 0 715.3 0 692.2 0C669 0 646 0 623 0C600 0 577 0 554 0C531 0 508 0 484.8 0C461.7 0 438.3 0 415.2 0C392 0 369 0 346 0C323 0 300 0 277 0C254 0 231 0 207.8 0C184.7 0 161.3 0 138.2 0C115 0 92 0 69 0C46 0 23 0 11.5 0L0 0Z" fill="#a51131"></path><path d="M0 194L11.5 195.2C23 196.3 46 198.7 69 196.8C92 195 115 189 138.2 178.5C161.3 168 184.7 153 207.8 145.2C231 137.3 254 136.7 277 137.7C300 138.7 323 141.3 346 138.2C369 135 392 126 415.2 122C438.3 118 461.7 119 484.8 122.5C508 126 531 132 554 138.2C577 144.3 600 150.7 623 156.8C646 163 669 169 692.2 161.5C715.3 154 738.7 133 761.8 128.7C785 124.3 808 136.7 831 151.2C854 165.7 877 182.3 888.5 190.7L900 199L900 0L888.5 0C877 0 854 0 831 0C808 0 785 0 761.8 0C738.7 0 715.3 0 692.2 0C669 0 646 0 623 0C600 0 577 0 554 0C531 0 508 0 484.8 0C461.7 0 438.3 0 415.2 0C392 0 369 0 346 0C323 0 300 0 277 0C254 0 231 0 207.8 0C184.7 0 161.3 0 138.2 0C115 0 92 0 69 0C46 0 23 0 11.5 0L0 0Z" fill="#d10d3f"></path><path d="M0 92L11.5 86.8C23 81.7 46 71.3 69 63.2C92 55 115 49 138.2 55.5C161.3 62 184.7 81 207.8 84.5C231 88 254 76 277 75.7C300 75.3 323 86.7 346 85.2C369 83.7 392 69.3 415.2 69.7C438.3 70 461.7 85 484.8 86.8C508 88.7 531 77.3 554 74.8C577 72.3 600 78.7 623 75.5C646 72.3 669 59.7 692.2 54.5C715.3 49.3 738.7 51.7 761.8 51C785 50.3 808 46.7 831 54.8C854 63 877 83 888.5 93L900 103L900 0L888.5 0C877 0 854 0 831 0C808 0 785 0 761.8 0C738.7 0 715.3 0 692.2 0C669 0 646 0 623 0C600 0 577 0 554 0C531 0 508 0 484.8 0C461.7 0 438.3 0 415.2 0C392 0 369 0 346 0C323 0 300 0 277 0C254 0 231 0 207.8 0C184.7 0 161.3 0 138.2 0C115 0 92 0 69 0C46 0 23 0 11.5 0L0 0Z" fill="#ff004f"></path></svg>