<svg id="visual" viewBox="0 0 900 600" width="900" height="600" xmlns="http://www.w3.org/2000/svg" xmlns:xlink="http://www.w3.org/1999/xlink" version="1.1"><rect x="0" y="0" width="900" height="600" fill="#080808"></rect><path d="M0 401L21.5 408.3C43 415.7 86 430.3 128.8 433.2C171.7 436 214.3 427 257.2 425.3C300 423.7 343 429.3 385.8 422C428.7 414.7 471.3 394.3 514.2 389.5C557 384.7 600 395.3 642.8 393.8C685.7 392.3 728.3 378.7 771.2 383.7C814 388.7 857 412.3 878.5 424.2L900 436L900 601L878.5 601C857 601 814 601 771.2 601C728.3 601 685.7 601 642.8 601C600 601 557 601 514.2 601C471.3 601 428.7 601 385.8 601C343 601 300 601 257.2 601C214.3 601 171.7 601 128.8 601C86 601 43 601 21.5 601L0 601Z" fill="#300806"></path><path d="M0 456L21.5 456C43 456 86 456 128.8 456.8C171.7 457.7 214.3 459.3 257.2 461.8C300 464.3 343 467.7 385.8 458.7C428.7 449.7 471.3 428.3 514.2 419C557 409.7 600 412.3 642.8 424.5C685.7 436.7 728.3 458.3 771.2 464C814 469.7 857 459.3 878.5 454.2L900 449L900 601L878.5 601C857 601 814 601 771.2 601C728.3 601 685.7 601 642.8 601C600 601 557 601 514.2 601C471.3 601 428.7 601 385.8 601C343 601 300 601 257.2 601C214.3 601 171.7 601 128.8 601C86 601 43 601 21.5 601L0 601Z" fill="#5d0e1a"></path><path d="M0 465L21.5 470.3C43 475.7 86 486.3 128.8 487.2C171.7 488 214.3 479 257.2 477.5C300 476 343 482 385.8 477.8C428.7 473.7 471.3 459.3 514.2 455C557 450.7 600 456.3 642.8 461.8C685.7 467.3 728.3 472.7 771.2 470.7C814 468.7 857 459.3 878.5 454.7L900 450L900 601L878.5 601C857 601 814 601 771.2 601C728.3 601 685.7 601 642.8 601C600 601 557 601 514.2 601C471.3 601 428.7 601 385.8 601C343 601 300 601 257.2 601C214.3 601 171.7 601 128.8 601C86 601 43 601 21.5 601L0 601Z" fill="#90112a"></path><path d="M0 538L21.5 538.2C43 538.3 86 538.7 128.8 535C171.7 531.3 214.3 523.7 257.2 515C300 506.3 343 496.7 385.8 496.7C428.7 496.7 471.3 506.3 514.2 510.5C557 514.7 600 513.3 642.8 511.7C685.7 510 728.3 508 771.2 506.2C814 504.3 857 502.7 878.5 501.8L900 501L900 601L878.5 601C857 601 814 601 771.2 601C728.3 601 685.7 601 642.8 601C600 601 557 601 514.2 601C471.3 601 428.7 601 385.8 601C343 601 300 601 257.2 601C214.3 601 171.7 601 128.8 601C86 601 43 601 21.5 601L0 601Z" fill="#c60e3c"></path><path d="M0 571L21.5 567.2C43 563.3 86 555.7 128.8 553.7C171.7 551.7 214.3 555.3 257.2 553.2C300 551 343 543 385.8 540.5C428.7 538 471.3 541 514.2 544.7C557 548.3 600 552.7 642.8 556.7C685.7 560.7 728.3 564.3 771.2 562C814 559.7 857 551.3 878.5 547.2L900 543L900 601L878.5 601C857 601 814 601 771.2 601C728.3 601 685.7 601 642.8 601C600 601 557 601 514.2 601C471.3 601 428.7 601 385.8 601C343 601 300 601 257.2 601C214.3 601 171.7 601 128.8 601C86 601 43 601 21.5 601L0 601Z" fill="#ff004f"></path></svg>